<?xml version="1.0" encoding="utf-8"?>
<!-- Generator: Adobe Illustrator 22.0.0, SVG Export Plug-In . SVG Version: 6.00 Build 0)  -->
<svg version="1.1" id="Layer_1" xmlns="http://www.w3.org/2000/svg" xmlns:xlink="http://www.w3.org/1999/xlink" x="0px" y="0px"
	 viewBox="0 0 512 80.4" style="enable-background:new 0 0 512 80.4;" xml:space="preserve">
<style type="text/css">
	.st0{fill:#E12B2A;}
	.st1{fill:#E6504F;}
	.st2{fill:#EE8B8B;}
	.st3{fill:#141E91;}
	.st4{fill:#E12928;}
</style>
<path class="st0" d="M80.5,13.4c0-2.1-1.1-3.5-3.3-3.6C76.2,9.6,75,9.4,74,9.4c-3.1,0-4.3,1.2-4.4,4.3c-0.1,2.4-0.2,4.8,0,7.1
	c0.1,1.9-0.6,2.5-2.5,2.4c-9.9-0.1-19.7-0.1-29.6,0c-6,0-12.1,0.4-17.7,2.9c-4.3,2.1-7.2,5.2-8.4,9.9c-0.1,0.5,0,1.2-0.7,1.3v0.6
	c0.6,1,0.2,2.1,0.3,3.1c0,0.1,0,0.1,0,0.2v0.1c-0.2,1.4,0.3,2.9-0.3,4.3v15.3c1.7,3.7,3.8,7,7.8,8.7c2.4,1.1,4.8,1.9,7.3,2.3
	c11.8,1.6,23.7,1.3,35.6,0.4c4.9-0.4,9.4-2.1,13.5-4.8c3.2-2.1,5.7-4.9,5.7-8.9C80.5,43.6,80.5,28.4,80.5,13.4z M69.6,56.6
	c0,2.6-1.2,4-3.5,5.1c-2.9,1.3-6,1.7-9.1,1.8c-9.2,0.2-18.5,0.6-27.7-0.3c-5.5-0.5-7.4-2.6-7.4-8.1c0-5,0.1-10.1,0-15
	c-0.1-3.2,1.4-5,4.2-5.9c3.5-1.2,7-1.4,10.5-1.4c4.8-0.1,9.5,0,14.3,0c5.5,0,10.9,0.1,16.5,0c1.7,0,2.2,0.5,2.2,2.2
	C69.5,42,69.5,49.3,69.6,56.6z"/>
<path class="st0" d="M353.2,5.5c4.2,2.1,5.6,4.1,4.6,7.1s-4.2,4.6-8.3,4c-3.2-0.5-5.3-2.2-5.7-4.7c-0.4-3.1,0.9-4.7,5-6.4
	C350.2,5.5,351.7,5.5,353.2,5.5z"/>
<path class="st1" d="M11.1,41.2c-0.1,1.5,0.6,3.1-0.5,4.5c0-1.4,0-3,0-4.4C10.7,41,10.9,41,11.1,41.2z"/>
<path class="st2" d="M11.1,41.2c-0.2,0-0.3,0.1-0.5,0.1c0-1.1,0-2.2,0-3.3C11.8,38.9,10.9,40,11.1,41.2z"/>
<path class="st3" d="M259.2,27.6c-0.1-7.8-3.6-12.5-11-15.2c-3.8-1.3-7.8-1.8-11.8-1.9c-10-0.2-19.9-0.3-29.9,0
	c-6.2,0.2-12.4,1.2-17.7,4.8c-4,2.7-6.2,6.3-6.3,11.2v15.6c0,5.1,0,10.2,0.1,15.3c0,5,2.3,8.6,6.4,11.3c4.4,2.9,9.5,4.2,14.7,4.7
	c9.5,0.9,19,0.5,28.5,0.4c5.5-0.1,10.9-0.7,16.1-2.6c7.2-2.7,10.9-7.5,11-14.7C259.3,46.9,259.3,37.2,259.2,27.6z M247.4,56.1
	c0,3-1.4,4.8-3.9,5.9c-3.2,1.5-6.7,2-10.1,2c-9.6,0-19.2,0.7-28.8-0.4c-1.7-0.2-3.5-0.6-5.1-1.1c-4.1-1.4-5.5-3.4-5.5-7.7V29.1
	c0-3.9,1.2-5.8,5-7.3c4.2-1.8,8.7-1.6,13.2-1.8c2.7-0.1,5.7,0,9.6,0c5.2,0.1,11.2-0.3,17.4,0.9c1.7,0.3,3.4,0.9,4.9,1.7
	c2.1,1.2,3.3,3,3.3,5.6C247.3,37.4,247.3,46.8,247.4,56.1z"/>
<path class="st3" d="M501.4,39.2c0.1-4.6-1.9-7.9-5.8-10.2c-4-2.4-8.3-3.6-12.9-3.7c-8.8-0.1-17.5-0.2-26.4,0
	c-5.2,0.1-10.2,1.3-14.9,3.9c-4.6,2.7-6.9,6.6-6.9,11.9v15.9c0,6.4,3.2,10.9,8.7,13.7c4.1,2,8.7,2.7,13.2,2.8
	c11.7,0.1,23.4,0.1,35.1,0c3.3,0,4.2-1.1,4.2-4.2c0-3.5-1.2-4.7-4.8-4.8c-8.2-0.1-16.5-0.1-24.6-0.2c-4.2-0.1-8.4,0.3-12.6-0.7
	c-3.5-0.9-6.5-2.4-7.8-6.1c-0.6-1.7-0.4-2.8,2-2.8c8.2,0.2,16.3,0.1,24.4,0.1H497c3.4,0,4.4-1,4.4-4.4
	C501.4,46.7,501.3,43,501.4,39.2z M491,44.3c-0.3,1.6-1.4,1.2-2.3,1.2h-20.5c-6.7,0-13.3-0.1-20,0.1c-2.1,0-2.9-0.4-2.8-2.7
	c0.2-5.1,1-6.8,5.9-7.5c11.3-1.5,22.7-1.9,34,0.3C490.6,36.7,491.9,39.1,491,44.3z"/>
<path class="st0" d="M145.5,27.4c-2.4-1.1-4.8-1.9-7.3-2.2c-10.4-1-21-0.6-31.5-0.2c-4.4,0.2-8.6,1.3-12.6,3.5
	c-4.8,2.7-7.5,6.5-7.4,12.2c0.1,5.6,0.1,11.1,0,16.8c-0.1,3.9,1.4,7.1,4.2,9.8c3.6,3.6,8.3,4.9,13.2,5.3c13,1.2,26.2,0.4,39.2,0.6
	c3.3,0.1,4.5-1.2,4.5-4.1c0-3.5-1.2-4.7-4.6-4.7c-6.4-0.1-12.8,0-19.2-0.2c-6.1-0.1-12.3,0.4-18.3-0.8c-3.6-0.8-6.7-2.5-7.8-6.4
	c-0.5-1.7-0.2-2.7,2-2.6c8.1,0.1,16.3,0.1,24.4,0.1s16.3,0,24.4,0c3.5,0,4.4-0.9,4.5-4.4c0.1-3.4-0.1-6.8,0.1-10.2
	C153.6,33.6,150.7,29.7,145.5,27.4z M142.8,44.5c-0.5,0.8-1.3,0.4-2,0.4c-6.9,0-13.7,0-20.6,0s-13.7-0.1-20.6,0
	c-1.7,0-2.3-0.5-2.3-2.3c0-5.8,1-7.3,6.8-8.1c10.8-1.5,21.7-1.5,32.5,0.2c1.4,0.2,2.8,0.8,4.1,1.4C142.6,37,143.9,42.9,142.8,44.5z"
	/>
<path class="st3" d="M404.3,74.1c-8.1-0.2-16.3,0.7-24.3-0.6c-7.6-1.2-15.2-4.6-14.7-16.3c0.2-4.8,0-9.7,0.1-14.6
	c0-2.2-0.1-4.3,0.3-6.5c0.9-4.4,3.5-7.4,7.4-9.2c4.1-2,8.5-2.7,13-2.8c12.8-0.1,25.6,0,38.4,0c1,0,1.8,0.1,2.7,0.4
	c2.2,0.8,3.6,2.3,3.5,4.7c-0.2,2.5-2,3.8-4.4,4.2c-1.2,0.2-2.4,0.1-3.5,0.1c-12.7,0.3-25.6-0.6-38.3,0.5c-1.5,0.1-3.1,0.6-4.5,1.1
	c-2.1,0.8-3.2,2.3-3.2,4.6c0,6.1,0.1,12.3,0,18.4c0,2.6,1.2,4.1,3.4,5.1c2.9,1.2,5.9,1.6,9.1,1.6c11.5,0,23,0,34.6,0
	c0.9,0,1.6-0.1,2.5,0.1c2.9,0.5,4.8,2.6,4.7,5.2c-0.1,2.3-1.9,3.9-5,4C418.6,74.2,411.4,74.1,404.3,74.1z"/>
<path class="st3" d="M303.7,46.9c0-7.2,0.1-14.5,0-21.7c-0.1-5.8,2.6-9.7,7.8-12.1c6.7-3.1,13.8-3,21-2.7c2.3,0.1,3.3,2,3.2,5.2
	c-0.1,2.6-1.4,3.8-3.8,4c-3.7,0.2-7.5-0.3-11.2,0.6c-1.6,0.4-3.2,0.8-4.5,1.9c-0.5,0.4-1,1-0.7,1.6c0.3,0.7,1,0.4,1.4,0.4
	c4.7,0,9.3,0,14,0c3.5,0,4.8,1.2,4.8,4.5c0,3.5-1.2,4.9-4.7,4.9c-4.6,0-9.1,0.1-13.7,0c-1.9-0.1-2.5,0.5-2.5,2.4
	c0.1,10.9,0,22,0,32.9c0,1.8,0.2,3.8-2,4.6c-2.7,1-5.4,1-7.9-0.6c-1.2-0.8-1.2-2.1-1.2-3.5C303.7,62,303.7,54.5,303.7,46.9z"/>
<path class="st3" d="M266.9,46.5c0-7.3,0-14.7,0-22c0-5.5,2.8-9.1,7.6-11.3c6.7-3.2,14-3.1,21.2-2.7c2.2,0.1,3.4,2.3,3.2,5.3
	c-0.2,2.5-1.5,3.8-4,3.9c-3.7,0.2-7.5-0.3-11.2,0.6c-1.5,0.4-3,0.8-4.2,1.7c-0.5,0.4-1.1,1-0.9,1.6c0.2,0.9,1.1,0.5,1.6,0.6
	c4.6,0,9.1,0,13.7,0c3.5,0,5,1.3,5,4.3c0.1,3.5-1.3,5-4.9,5.1c-4.6,0-9.1,0.1-13.7,0c-1.8-0.1-2.3,0.5-2.3,2.3c0.1,11,0,22.1,0,33.2
	c0,3.8-1.2,5.1-5.1,5.1c-4.8,0-5.9-1-5.9-5C266.8,61.6,266.9,54,266.9,46.5L266.9,46.5z"/>
<path class="st4" d="M162.1,40.9c0-8.9,0-17.7,0-26.6c0-3.8,1.1-4.9,4.9-4.9c5,0,6,0.9,6,4.9c0,17.8,0,35.7,0,53.5
	c0,3.9-1.2,5.1-5.1,5.1c-4.8,0-5.9-1-5.9-5.1C162.1,58.8,162.1,49.9,162.1,40.9z"/>
<path class="st3" d="M356.1,49.4c0,6.7,0,13.3,0,20c0,1.8,0.3,3.9-1.9,4.7c-2.5,0.9-5.2,1.1-7.7-0.3c-1.3-0.7-1.5-2.1-1.5-3.5
	c0-13.8,0-27.6,0-41.4c0-3.1,1.2-4.2,4.3-4.5c0.5,0,1,0,1.3,0c4.8,0.3,5.5,1.1,5.5,5.8C356.2,36.7,356.1,43,356.1,49.4z"/>
</svg>
